{
	"asset":{
		"generator":"Khronos glTF Blender I/O v4.3.47",
		"version":"2.0"
	},
	"scene":0,
	"scenes":[
		{
			"name":"Scene",
			"nodes":[
				10
			]
		}
	],
	"nodes":[
		{
			"name":"Bone.003",
			"rotation":[
				0.00025642302352935076,
				-4.7391848056577146e-05,
				0.015064057894051075,
				0.9998865127563477
			],
			"scale":[
				1,
				1.0000001192092896,
				1
			],
			"translation":[
				-6.994014256633818e-09,
				0.5999438762664795,
				1.1323209037072957e-10
			]
		},
		{
			"name":"Bone.006",
			"rotation":[
				-0.1139293983578682,
				-3.210713117596242e-08,
				-0.0041455295868217945,
				0.9934802055358887
			],
			"scale":[
				0.9999999403953552,
				0.9999999403953552,
				1.0000001192092896
			],
			"translation":[
				1.685847905719129e-09,
				0.5770067572593689,
				5.423953552963212e-08
			]
		},
		{
			"children":[
				1
			],
			"name":"Bone.005",
			"rotation":[
				-0.4660370945930481,
				0.5253328680992126,
				0.48776111006736755,
				0.518578827381134
			],
			"scale":[
				0.9999998807907104,
				0.9999998211860657,
				1
			],
			"translation":[
				-1.0853909770958126e-08,
				1.0023768481914885e-08,
				-3.866899689342063e-09
			]
		},
		{
			"name":"Bone.008",
			"rotation":[
				0.11366817355155945,
				-0.4024723768234253,
				0.008757172152400017,
				0.9083054661750793
			],
			"scale":[
				1.0000001192092896,
				1,
				0.9999999403953552
			],
			"translation":[
				-9.767245501279831e-08,
				0.5770062804222107,
				2.5436747819185257e-08
			]
		},
		{
			"children":[
				3
			],
			"name":"Bone.007",
			"rotation":[
				0.5855047702789307,
				0.6448805928230286,
				-0.3176266551017761,
				0.37473535537719727
			],
			"scale":[
				1,
				1,
				0.9999999403953552
			],
			"translation":[
				-0.0005605868645943701,
				-6.47507431494887e-06,
				-4.852024559909296e-08
			]
		},
		{
			"children":[
				0,
				2,
				4
			],
			"name":"Bone.002",
			"rotation":[
				-0.0031973430886864662,
				1.8207646235168795e-07,
				-0.002564961090683937,
				0.9999915957450867
			],
			"scale":[
				1,
				1,
				0.9999999403953552
			],
			"translation":[
				-6.55518306302838e-10,
				1.0917812585830688,
				1.15324816363227e-09
			]
		},
		{
			"children":[
				5
			],
			"name":"Bone.001",
			"rotation":[
				-0.0028406386263668537,
				-6.545207270391984e-06,
				-0.0074709379114210606,
				0.9999680519104004
			],
			"scale":[
				0.9999999403953552,
				1,
				1.0000001192092896
			],
			"translation":[
				-6.163105581435957e-10,
				0.7705144882202148,
				1.5143086784519255e-10
			]
		},
		{
			"children":[
				6
			],
			"name":"Bone",
			"rotation":[
				-0.0022424012422561646,
				-1.0691691443298623e-07,
				0.0043047331273555756,
				0.9999881982803345
			],
			"translation":[
				0,
				-1.0439858436584473,
				0
			]
		},
		{
			"mesh":0,
			"name":"Cube",
			"skin":0
		},
		{
			"mesh":1,
			"name":"Cube.001",
			"skin":0
		},
		{
			"children":[
				8,
				9,
				7
			],
			"name":"Armature"
		}
	],
	"animations":[
		{
			"channels":[
				{
					"sampler":0,
					"target":{
						"node":7,
						"path":"translation"
					}
				},
				{
					"sampler":1,
					"target":{
						"node":7,
						"path":"rotation"
					}
				},
				{
					"sampler":2,
					"target":{
						"node":7,
						"path":"scale"
					}
				},
				{
					"sampler":3,
					"target":{
						"node":6,
						"path":"translation"
					}
				},
				{
					"sampler":4,
					"target":{
						"node":6,
						"path":"rotation"
					}
				},
				{
					"sampler":5,
					"target":{
						"node":6,
						"path":"scale"
					}
				},
				{
					"sampler":6,
					"target":{
						"node":5,
						"path":"translation"
					}
				},
				{
					"sampler":7,
					"target":{
						"node":5,
						"path":"rotation"
					}
				},
				{
					"sampler":8,
					"target":{
						"node":5,
						"path":"scale"
					}
				},
				{
					"sampler":9,
					"target":{
						"node":0,
						"path":"translation"
					}
				},
				{
					"sampler":10,
					"target":{
						"node":0,
						"path":"rotation"
					}
				},
				{
					"sampler":11,
					"target":{
						"node":0,
						"path":"scale"
					}
				},
				{
					"sampler":12,
					"target":{
						"node":2,
						"path":"translation"
					}
				},
				{
					"sampler":13,
					"target":{
						"node":2,
						"path":"rotation"
					}
				},
				{
					"sampler":14,
					"target":{
						"node":2,
						"path":"scale"
					}
				},
				{
					"sampler":15,
					"target":{
						"node":1,
						"path":"translation"
					}
				},
				{
					"sampler":16,
					"target":{
						"node":1,
						"path":"rotation"
					}
				},
				{
					"sampler":17,
					"target":{
						"node":1,
						"path":"scale"
					}
				},
				{
					"sampler":18,
					"target":{
						"node":4,
						"path":"translation"
					}
				},
				{
					"sampler":19,
					"target":{
						"node":4,
						"path":"rotation"
					}
				},
				{
					"sampler":20,
					"target":{
						"node":4,
						"path":"scale"
					}
				},
				{
					"sampler":21,
					"target":{
						"node":3,
						"path":"translation"
					}
				},
				{
					"sampler":22,
					"target":{
						"node":3,
						"path":"rotation"
					}
				},
				{
					"sampler":23,
					"target":{
						"node":3,
						"path":"scale"
					}
				}
			],
			"name":"ArmatureAction",
			"samplers":[
				{
					"input":13,
					"interpolation":"STEP",
					"output":14
				},
				{
					"input":13,
					"interpolation":"STEP",
					"output":15
				},
				{
					"input":13,
					"interpolation":"STEP",
					"output":16
				},
				{
					"input":13,
					"interpolation":"STEP",
					"output":17
				},
				{
					"input":13,
					"interpolation":"STEP",
					"output":18
				},
				{
					"input":13,
					"interpolation":"STEP",
					"output":19
				},
				{
					"input":13,
					"interpolation":"STEP",
					"output":20
				},
				{
					"input":13,
					"interpolation":"STEP",
					"output":21
				},
				{
					"input":13,
					"interpolation":"STEP",
					"output":22
				},
				{
					"input":13,
					"interpolation":"STEP",
					"output":23
				},
				{
					"input":13,
					"interpolation":"STEP",
					"output":24
				},
				{
					"input":13,
					"interpolation":"STEP",
					"output":25
				},
				{
					"input":13,
					"interpolation":"STEP",
					"output":26
				},
				{
					"input":13,
					"interpolation":"STEP",
					"output":27
				},
				{
					"input":13,
					"interpolation":"STEP",
					"output":28
				},
				{
					"input":13,
					"interpolation":"STEP",
					"output":29
				},
				{
					"input":30,
					"interpolation":"LINEAR",
					"output":31
				},
				{
					"input":13,
					"interpolation":"STEP",
					"output":32
				},
				{
					"input":13,
					"interpolation":"STEP",
					"output":33
				},
				{
					"input":13,
					"interpolation":"STEP",
					"output":34
				},
				{
					"input":13,
					"interpolation":"STEP",
					"output":35
				},
				{
					"input":13,
					"interpolation":"STEP",
					"output":36
				},
				{
					"input":30,
					"interpolation":"LINEAR",
					"output":37
				},
				{
					"input":13,
					"interpolation":"STEP",
					"output":38
				}
			]
		}
	],
	"materials":[
		{
			"doubleSided":true,
			"name":"Material.001",
			"pbrMetallicRoughness":{
				"baseColorTexture":{
					"index":0
				},
				"metallicFactor":0,
				"roughnessFactor":0.5
			}
		},
		{
			"doubleSided":true,
			"name":"Material.002",
			"pbrMetallicRoughness":{
				"baseColorTexture":{
					"index":1
				},
				"metallicFactor":0,
				"roughnessFactor":0.5
			}
		}
	],
	"meshes":[
		{
			"name":"Cube.001",
			"primitives":[
				{
					"attributes":{
						"POSITION":0,
						"NORMAL":1,
						"TEXCOORD_0":2,
						"JOINTS_0":3,
						"WEIGHTS_0":4
					},
					"indices":5,
					"material":0
				}
			]
		},
		{
			"name":"Cube.002",
			"primitives":[
				{
					"attributes":{
						"POSITION":7,
						"NORMAL":8,
						"TEXCOORD_0":9,
						"JOINTS_0":10,
						"WEIGHTS_0":11
					},
					"indices":12,
					"material":1
				}
			]
		}
	],
	"textures":[
		{
			"sampler":0,
			"source":0
		},
		{
			"sampler":0,
			"source":1
		}
	],
	"images":[
		{
			"mimeType":"image/png",
			"name":"CroosManBodyTex",
			"uri":"CroosManBodyTex.png"
		},
		{
			"mimeType":"image/png",
			"name":"crossManArmTex",
			"uri":"crossManArmTex.png"
		}
	],
	"skins":[
		{
			"inverseBindMatrices":6,
			"joints":[
				7,
				6,
				5,
				0,
				2,
				1,
				4,
				3
			],
			"name":"Armature"
		}
	],
	"accessors":[
		{
			"bufferView":0,
			"componentType":5126,
			"count":48,
			"max":[
				0.5415870547294617,
				2.1469783782958984,
				0.5145471096038818
			],
			"min":[
				-0.5415870547294617,
				-1.0676501989364624,
				-0.568626880645752
			],
			"type":"VEC3"
		},
		{
			"bufferView":1,
			"componentType":5126,
			"count":48,
			"type":"VEC3"
		},
		{
			"bufferView":2,
			"componentType":5126,
			"count":48,
			"type":"VEC2"
		},
		{
			"bufferView":3,
			"componentType":5121,
			"count":48,
			"type":"VEC4"
		},
		{
			"bufferView":4,
			"componentType":5126,
			"count":48,
			"type":"VEC4"
		},
		{
			"bufferView":5,
			"componentType":5123,
			"count":108,
			"type":"SCALAR"
		},
		{
			"bufferView":6,
			"componentType":5126,
			"count":8,
			"type":"MAT4"
		},
		{
			"bufferView":7,
			"componentType":5126,
			"count":48,
			"max":[
				1.5642952919006348,
				1.343954086303711,
				0.3724847137928009
			],
			"min":[
				-1.564295768737793,
				0.26077961921691895,
				-0.35264918208122253
			],
			"type":"VEC3"
		},
		{
			"bufferView":8,
			"componentType":5126,
			"count":48,
			"type":"VEC3"
		},
		{
			"bufferView":9,
			"componentType":5126,
			"count":48,
			"type":"VEC2"
		},
		{
			"bufferView":10,
			"componentType":5121,
			"count":48,
			"type":"VEC4"
		},
		{
			"bufferView":11,
			"componentType":5126,
			"count":48,
			"type":"VEC4"
		},
		{
			"bufferView":12,
			"componentType":5123,
			"count":108,
			"type":"SCALAR"
		},
		{
			"bufferView":13,
			"componentType":5126,
			"count":2,
			"max":[
				1.6666666666666667
			],
			"min":[
				0
			],
			"type":"SCALAR"
		},
		{
			"bufferView":14,
			"componentType":5126,
			"count":2,
			"type":"VEC3"
		},
		{
			"bufferView":15,
			"componentType":5126,
			"count":2,
			"type":"VEC4"
		},
		{
			"bufferView":16,
			"componentType":5126,
			"count":2,
			"type":"VEC3"
		},
		{
			"bufferView":17,
			"componentType":5126,
			"count":2,
			"type":"VEC3"
		},
		{
			"bufferView":18,
			"componentType":5126,
			"count":2,
			"type":"VEC4"
		},
		{
			"bufferView":19,
			"componentType":5126,
			"count":2,
			"type":"VEC3"
		},
		{
			"bufferView":20,
			"componentType":5126,
			"count":2,
			"type":"VEC3"
		},
		{
			"bufferView":21,
			"componentType":5126,
			"count":2,
			"type":"VEC4"
		},
		{
			"bufferView":22,
			"componentType":5126,
			"count":2,
			"type":"VEC3"
		},
		{
			"bufferView":23,
			"componentType":5126,
			"count":2,
			"type":"VEC3"
		},
		{
			"bufferView":24,
			"componentType":5126,
			"count":2,
			"type":"VEC4"
		},
		{
			"bufferView":25,
			"componentType":5126,
			"count":2,
			"type":"VEC3"
		},
		{
			"bufferView":26,
			"componentType":5126,
			"count":2,
			"type":"VEC3"
		},
		{
			"bufferView":27,
			"componentType":5126,
			"count":2,
			"type":"VEC4"
		},
		{
			"bufferView":28,
			"componentType":5126,
			"count":2,
			"type":"VEC3"
		},
		{
			"bufferView":29,
			"componentType":5126,
			"count":2,
			"type":"VEC3"
		},
		{
			"bufferView":30,
			"componentType":5126,
			"count":41,
			"max":[
				1.6666666666666667
			],
			"min":[
				0
			],
			"type":"SCALAR"
		},
		{
			"bufferView":31,
			"componentType":5126,
			"count":41,
			"type":"VEC4"
		},
		{
			"bufferView":32,
			"componentType":5126,
			"count":2,
			"type":"VEC3"
		},
		{
			"bufferView":33,
			"componentType":5126,
			"count":2,
			"type":"VEC3"
		},
		{
			"bufferView":34,
			"componentType":5126,
			"count":2,
			"type":"VEC4"
		},
		{
			"bufferView":35,
			"componentType":5126,
			"count":2,
			"type":"VEC3"
		},
		{
			"bufferView":36,
			"componentType":5126,
			"count":2,
			"type":"VEC3"
		},
		{
			"bufferView":37,
			"componentType":5126,
			"count":41,
			"type":"VEC4"
		},
		{
			"bufferView":38,
			"componentType":5126,
			"count":2,
			"type":"VEC3"
		}
	],
	"bufferViews":[
		{
			"buffer":0,
			"byteLength":576,
			"byteOffset":0,
			"target":34962
		},
		{
			"buffer":0,
			"byteLength":576,
			"byteOffset":576,
			"target":34962
		},
		{
			"buffer":0,
			"byteLength":384,
			"byteOffset":1152,
			"target":34962
		},
		{
			"buffer":0,
			"byteLength":192,
			"byteOffset":1536,
			"target":34962
		},
		{
			"buffer":0,
			"byteLength":768,
			"byteOffset":1728,
			"target":34962
		},
		{
			"buffer":0,
			"byteLength":216,
			"byteOffset":2496,
			"target":34963
		},
		{
			"buffer":0,
			"byteLength":512,
			"byteOffset":2712
		},
		{
			"buffer":0,
			"byteLength":576,
			"byteOffset":3224,
			"target":34962
		},
		{
			"buffer":0,
			"byteLength":576,
			"byteOffset":3800,
			"target":34962
		},
		{
			"buffer":0,
			"byteLength":384,
			"byteOffset":4376,
			"target":34962
		},
		{
			"buffer":0,
			"byteLength":192,
			"byteOffset":4760,
			"target":34962
		},
		{
			"buffer":0,
			"byteLength":768,
			"byteOffset":4952,
			"target":34962
		},
		{
			"buffer":0,
			"byteLength":216,
			"byteOffset":5720,
			"target":34963
		},
		{
			"buffer":0,
			"byteLength":8,
			"byteOffset":5936
		},
		{
			"buffer":0,
			"byteLength":24,
			"byteOffset":5944
		},
		{
			"buffer":0,
			"byteLength":32,
			"byteOffset":5968
		},
		{
			"buffer":0,
			"byteLength":24,
			"byteOffset":6000
		},
		{
			"buffer":0,
			"byteLength":24,
			"byteOffset":6024
		},
		{
			"buffer":0,
			"byteLength":32,
			"byteOffset":6048
		},
		{
			"buffer":0,
			"byteLength":24,
			"byteOffset":6080
		},
		{
			"buffer":0,
			"byteLength":24,
			"byteOffset":6104
		},
		{
			"buffer":0,
			"byteLength":32,
			"byteOffset":6128
		},
		{
			"buffer":0,
			"byteLength":24,
			"byteOffset":6160
		},
		{
			"buffer":0,
			"byteLength":24,
			"byteOffset":6184
		},
		{
			"buffer":0,
			"byteLength":32,
			"byteOffset":6208
		},
		{
			"buffer":0,
			"byteLength":24,
			"byteOffset":6240
		},
		{
			"buffer":0,
			"byteLength":24,
			"byteOffset":6264
		},
		{
			"buffer":0,
			"byteLength":32,
			"byteOffset":6288
		},
		{
			"buffer":0,
			"byteLength":24,
			"byteOffset":6320
		},
		{
			"buffer":0,
			"byteLength":24,
			"byteOffset":6344
		},
		{
			"buffer":0,
			"byteLength":164,
			"byteOffset":6368
		},
		{
			"buffer":0,
			"byteLength":656,
			"byteOffset":6532
		},
		{
			"buffer":0,
			"byteLength":24,
			"byteOffset":7188
		},
		{
			"buffer":0,
			"byteLength":24,
			"byteOffset":7212
		},
		{
			"buffer":0,
			"byteLength":32,
			"byteOffset":7236
		},
		{
			"buffer":0,
			"byteLength":24,
			"byteOffset":7268
		},
		{
			"buffer":0,
			"byteLength":24,
			"byteOffset":7292
		},
		{
			"buffer":0,
			"byteLength":656,
			"byteOffset":7316
		},
		{
			"buffer":0,
			"byteLength":24,
			"byteOffset":7972
		}
	],
	"samplers":[
		{
			"magFilter":9729,
			"minFilter":9987
		}
	],
	"buffers":[
		{
			"byteLength":7996,
			"uri":"crossMan3.bin"
		}
	]
}
